<svg width="319" height="284" viewBox="0 0 319 284" fill="none" xmlns="http://www.w3.org/2000/svg">
<path opacity="0.7" d="M68 131H16C8.26801 131 2 137.268 2 145V265C2 272.732 8.26801 279 16 279H68C75.732 279 82 272.732 82 265V145C82 137.268 75.732 131 68 131Z" stroke="white" stroke-width="1.6"/>
<path opacity="0.55" d="M54.5 139H29.5C27.567 139 26 140.567 26 142.5C26 144.433 27.567 146 29.5 146H54.5C56.433 146 58 144.433 58 142.5C58 140.567 56.433 139 54.5 139Z" stroke="white" stroke-width="1.2"/>
<path opacity="0.45" d="M68 153H16C13.7909 153 12 154.791 12 157V183C12 185.209 13.7909 187 16 187H68C70.2091 187 72 185.209 72 183V157C72 154.791 70.2091 153 68 153Z" stroke="white"/>
<path opacity="0.4" d="M12 202H64" stroke="white" stroke-width="1.1"/>
<path opacity="0.35" d="M12 211H54" stroke="white" stroke-width="1.1"/>
<path opacity="0.3" d="M12 220H60" stroke="white" stroke-width="1.1"/>
<path opacity="0.6" d="M67 230H17C14.2386 230 12 232.239 12 235V239C12 241.761 14.2386 244 17 244H67C69.7614 244 72 241.761 72 239V235C72 232.239 69.7614 230 67 230Z" stroke="white" stroke-width="1.3"/>
<path opacity="0.35" d="M2 259H82" stroke="white" stroke-width="0.9"/>
<path opacity="0.45" d="M19 264H13C11.8954 264 11 264.895 11 266V271C11 272.105 11.8954 273 13 273H19C20.1046 273 21 272.105 21 271V266C21 264.895 20.1046 264 19 264Z" stroke="white"/>
<path opacity="0.45" d="M42 273C44.7614 273 47 270.761 47 268C47 265.239 44.7614 263 42 263C39.2386 263 37 265.239 37 268C37 270.761 39.2386 273 42 273Z" stroke="white"/>
<path opacity="0.4" d="M66 264H72" stroke="white"/>
<path opacity="0.4" d="M64 268H72" stroke="white"/>
<path opacity="0.4" d="M66 272H72" stroke="white"/>
<path opacity="0.45" d="M2 159V173" stroke="white" stroke-width="2" stroke-linecap="round"/>
<path opacity="0.45" d="M2 179V193" stroke="white" stroke-width="2" stroke-linecap="round"/>
<path opacity="0.85" d="M203 2H23C17.4772 2 13 6.47715 13 12V146C13 151.523 17.4772 156 23 156H203C208.523 156 213 151.523 213 146V12C213 6.47715 208.523 2 203 2Z" stroke="white" stroke-width="1.6"/>
<path opacity="0.85" d="M13 28H213" stroke="white" stroke-width="1.5"/>
<path opacity="0.7" d="M31 19C33.2091 19 35 17.2091 35 15C35 12.7909 33.2091 11 31 11C28.7909 11 27 12.7909 27 15C27 17.2091 28.7909 19 31 19Z" stroke="white" stroke-width="1.2"/>
<path opacity="0.7" d="M45 19C47.2091 19 49 17.2091 49 15C49 12.7909 47.2091 11 45 11C42.7909 11 41 12.7909 41 15C41 17.2091 42.7909 19 45 19Z" stroke="white" stroke-width="1.2"/>
<path opacity="0.7" d="M59 19C61.2091 19 63 17.2091 63 15C63 12.7909 61.2091 11 59 11C56.7909 11 55 12.7909 55 15C55 17.2091 56.7909 19 59 19Z" stroke="white" stroke-width="1.2"/>
<path opacity="0.45" d="M193 8H79C76.7909 8 75 9.79086 75 12V19C75 21.2091 76.7909 23 79 23H193C195.209 23 197 21.2091 197 19V12C197 9.79086 195.209 8 193 8Z" stroke="white"/>
<path opacity="0.55" d="M193 40H33C30.7909 40 29 41.7909 29 44V74C29 76.2091 30.7909 78 33 78H193C195.209 78 197 76.2091 197 74V44C197 41.7909 195.209 40 193 40Z" stroke="white" stroke-width="1.2"/>
<path opacity="0.4" d="M29 88H145" stroke="white" stroke-width="1.2"/>
<path opacity="0.35" d="M29 98H113" stroke="white" stroke-width="1.2"/>
<path opacity="0.3" d="M29 108H133" stroke="white" stroke-width="1.2"/>
<path opacity="0.65" d="M87 118H35C31.6863 118 29 120.686 29 124V130C29 133.314 31.6863 136 35 136H87C90.3137 136 93 133.314 93 130V124C93 120.686 90.3137 118 87 118Z" stroke="white" stroke-width="1.4"/>
<path opacity="0.25" d="M173 40V148" stroke="white" stroke-width="0.8" stroke-dasharray="3 3"/>
<g opacity="0.9">
<path d="M175 130V158L182 152L188 164L193 162L187 150H196L175 130Z" stroke="white" stroke-width="1.6" stroke-linejoin="round"/>
</g>
<path opacity="0.3" d="M219 2V156" stroke="white" stroke-width="0.9" stroke-dasharray="4 3"/>
<path opacity="0.4" d="M215 2H223" stroke="white"/>
<path opacity="0.4" d="M215 156H223" stroke="white"/>
<path d="M233.641 75V83H232.672V76.0156H232.625L230.672 77.3125V76.3281L232.672 75H233.641ZM238.441 83.1094C237.983 83.1094 237.57 83.0182 237.203 82.8359C236.836 82.6536 236.542 82.4036 236.32 82.0859C236.099 81.7682 235.978 81.4062 235.957 81H236.895C236.931 81.362 237.095 81.6615 237.387 81.8984C237.681 82.1328 238.033 82.25 238.441 82.25C238.77 82.25 239.061 82.1732 239.316 82.0195C239.574 81.8659 239.776 81.6549 239.922 81.3867C240.07 81.1159 240.145 80.8099 240.145 80.4687C240.145 80.1198 240.068 79.8086 239.914 79.5352C239.763 79.2591 239.555 79.0417 239.289 78.8828C239.023 78.724 238.72 78.6432 238.379 78.6406C238.134 78.638 237.883 78.6758 237.625 78.7539C237.367 78.8294 237.155 78.9271 236.988 79.0469L236.082 78.9375L236.566 75H240.723V75.8594H237.379L237.098 78.2187H237.145C237.309 78.0885 237.514 77.9805 237.762 77.8945C238.009 77.8086 238.267 77.7656 238.535 77.7656C239.025 77.7656 239.461 77.8828 239.844 78.1172C240.229 78.349 240.531 78.6667 240.75 79.0703C240.971 79.474 241.082 79.9349 241.082 80.4531C241.082 80.9635 240.967 81.4193 240.738 81.8203C240.512 82.2187 240.199 82.5339 239.801 82.7656C239.402 82.9948 238.949 83.1094 238.441 83.1094ZM242.446 81.3594V80.5625L245.962 75H246.54V76.2344H246.149L243.493 80.4375V80.5H248.228V81.3594H242.446ZM246.212 83V81.1172V80.7461V75H247.134V83H246.212ZM249.707 85.25V77H250.598V77.9531H250.707C250.775 77.849 250.868 77.7161 250.988 77.5547C251.111 77.3906 251.285 77.2448 251.512 77.1172C251.741 76.987 252.051 76.9219 252.441 76.9219C252.947 76.9219 253.392 77.0482 253.777 77.3008C254.163 77.5534 254.464 77.9115 254.68 78.375C254.896 78.8385 255.004 79.3854 255.004 80.0156C255.004 80.651 254.896 81.2018 254.68 81.668C254.464 82.1315 254.164 82.4909 253.781 82.7461C253.398 82.9987 252.957 83.125 252.457 83.125C252.072 83.125 251.763 83.0612 251.531 82.9336C251.299 82.8034 251.121 82.6562 250.996 82.4922C250.871 82.3255 250.775 82.1875 250.707 82.0781H250.629V85.25H249.707ZM250.613 80C250.613 80.4531 250.68 80.8529 250.812 81.1992C250.945 81.543 251.139 81.8125 251.395 82.0078C251.65 82.2005 251.962 82.2969 252.332 82.2969C252.717 82.2969 253.039 82.1953 253.297 81.9922C253.557 81.7865 253.753 81.5104 253.883 81.1641C254.016 80.8151 254.082 80.4271 254.082 80C254.082 79.5781 254.017 79.1979 253.887 78.8594C253.759 78.5182 253.565 78.2487 253.305 78.0508C253.047 77.8503 252.723 77.75 252.332 77.75C251.957 77.75 251.642 77.8451 251.387 78.0352C251.132 78.2227 250.939 78.4857 250.809 78.8242C250.678 79.1602 250.613 79.5521 250.613 80ZM256.851 77L258.288 79.4531L259.726 77H260.788L258.851 80L260.788 83H259.726L258.288 80.6719L256.851 83H255.788L257.694 80L255.788 77H256.851Z" fill="white"/>
<g opacity="0.17">
<path d="M235 29.5C235.828 29.5 236.5 28.8284 236.5 28C236.5 27.1716 235.828 26.5 235 26.5C234.172 26.5 233.5 27.1716 233.5 28C233.5 28.8284 234.172 29.5 235 29.5Z" fill="white"/>
<path d="M255 29.5C255.828 29.5 256.5 28.8284 256.5 28C256.5 27.1716 255.828 26.5 255 26.5C254.172 26.5 253.5 27.1716 253.5 28C253.5 28.8284 254.172 29.5 255 29.5Z" fill="white"/>
<path d="M275 29.5C275.828 29.5 276.5 28.8284 276.5 28C276.5 27.1716 275.828 26.5 275 26.5C274.172 26.5 273.5 27.1716 273.5 28C273.5 28.8284 274.172 29.5 275 29.5Z" fill="white"/>
<path d="M295 29.5C295.828 29.5 296.5 28.8284 296.5 28C296.5 27.1716 295.828 26.5 295 26.5C294.172 26.5 293.5 27.1716 293.5 28C293.5 28.8284 294.172 29.5 295 29.5Z" fill="white"/>
<path d="M315 29.5C315.828 29.5 316.5 28.8284 316.5 28C316.5 27.1716 315.828 26.5 315 26.5C314.172 26.5 313.5 27.1716 313.5 28C313.5 28.8284 314.172 29.5 315 29.5Z" fill="white"/>
<path d="M235 49.5C235.828 49.5 236.5 48.8284 236.5 48C236.5 47.1716 235.828 46.5 235 46.5C234.172 46.5 233.5 47.1716 233.5 48C233.5 48.8284 234.172 49.5 235 49.5Z" fill="white"/>
<path d="M255 49.5C255.828 49.5 256.5 48.8284 256.5 48C256.5 47.1716 255.828 46.5 255 46.5C254.172 46.5 253.5 47.1716 253.5 48C253.5 48.8284 254.172 49.5 255 49.5Z" fill="white"/>
<path d="M275 49.5C275.828 49.5 276.5 48.8284 276.5 48C276.5 47.1716 275.828 46.5 275 46.5C274.172 46.5 273.5 47.1716 273.5 48C273.5 48.8284 274.172 49.5 275 49.5Z" fill="white"/>
<path d="M295 49.5C295.828 49.5 296.5 48.8284 296.5 48C296.5 47.1716 295.828 46.5 295 46.5C294.172 46.5 293.5 47.1716 293.5 48C293.5 48.8284 294.172 49.5 295 49.5Z" fill="white"/>
<path d="M315 49.5C315.828 49.5 316.5 48.8284 316.5 48C316.5 47.1716 315.828 46.5 315 46.5C314.172 46.5 313.5 47.1716 313.5 48C313.5 48.8284 314.172 49.5 315 49.5Z" fill="white"/>
<path d="M235 69.5C235.828 69.5 236.5 68.8284 236.5 68C236.5 67.1716 235.828 66.5 235 66.5C234.172 66.5 233.5 67.1716 233.5 68C233.5 68.8284 234.172 69.5 235 69.5Z" fill="white"/>
<path d="M255 69.5C255.828 69.5 256.5 68.8284 256.5 68C256.5 67.1716 255.828 66.5 255 66.5C254.172 66.5 253.5 67.1716 253.5 68C253.5 68.8284 254.172 69.5 255 69.5Z" fill="white"/>
<path d="M275 69.5C275.828 69.5 276.5 68.8284 276.5 68C276.5 67.1716 275.828 66.5 275 66.5C274.172 66.5 273.5 67.1716 273.5 68C273.5 68.8284 274.172 69.5 275 69.5Z" fill="white"/>
<path d="M295 69.5C295.828 69.5 296.5 68.8284 296.5 68C296.5 67.1716 295.828 66.5 295 66.5C294.172 66.5 293.5 67.1716 293.5 68C293.5 68.8284 294.172 69.5 295 69.5Z" fill="white"/>
<path d="M315 69.5C315.828 69.5 316.5 68.8284 316.5 68C316.5 67.1716 315.828 66.5 315 66.5C314.172 66.5 313.5 67.1716 313.5 68C313.5 68.8284 314.172 69.5 315 69.5Z" fill="white"/>
<path d="M235 89.5C235.828 89.5 236.5 88.8284 236.5 88C236.5 87.1716 235.828 86.5 235 86.5C234.172 86.5 233.5 87.1716 233.5 88C233.5 88.8284 234.172 89.5 235 89.5Z" fill="white"/>
<path d="M255 89.5C255.828 89.5 256.5 88.8284 256.5 88C256.5 87.1716 255.828 86.5 255 86.5C254.172 86.5 253.5 87.1716 253.5 88C253.5 88.8284 254.172 89.5 255 89.5Z" fill="white"/>
<path d="M275 89.5C275.828 89.5 276.5 88.8284 276.5 88C276.5 87.1716 275.828 86.5 275 86.5C274.172 86.5 273.5 87.1716 273.5 88C273.5 88.8284 274.172 89.5 275 89.5Z" fill="white"/>
<path d="M295 89.5C295.828 89.5 296.5 88.8284 296.5 88C296.5 87.1716 295.828 86.5 295 86.5C294.172 86.5 293.5 87.1716 293.5 88C293.5 88.8284 294.172 89.5 295 89.5Z" fill="white"/>
<path d="M315 89.5C315.828 89.5 316.5 88.8284 316.5 88C316.5 87.1716 315.828 86.5 315 86.5C314.172 86.5 313.5 87.1716 313.5 88C313.5 88.8284 314.172 89.5 315 89.5Z" fill="white"/>
<path d="M235 109.5C235.828 109.5 236.5 108.828 236.5 108C236.5 107.172 235.828 106.5 235 106.5C234.172 106.5 233.5 107.172 233.5 108C233.5 108.828 234.172 109.5 235 109.5Z" fill="white"/>
<path d="M255 109.5C255.828 109.5 256.5 108.828 256.5 108C256.5 107.172 255.828 106.5 255 106.5C254.172 106.5 253.5 107.172 253.5 108C253.5 108.828 254.172 109.5 255 109.5Z" fill="white"/>
<path d="M275 109.5C275.828 109.5 276.5 108.828 276.5 108C276.5 107.172 275.828 106.5 275 106.5C274.172 106.5 273.5 107.172 273.5 108C273.5 108.828 274.172 109.5 275 109.5Z" fill="white"/>
<path d="M295 109.5C295.828 109.5 296.5 108.828 296.5 108C296.5 107.172 295.828 106.5 295 106.5C294.172 106.5 293.5 107.172 293.5 108C293.5 108.828 294.172 109.5 295 109.5Z" fill="white"/>
<path d="M315 109.5C315.828 109.5 316.5 108.828 316.5 108C316.5 107.172 315.828 106.5 315 106.5C314.172 106.5 313.5 107.172 313.5 108C313.5 108.828 314.172 109.5 315 109.5Z" fill="white"/>
</g>
<path opacity="0.75" d="M193 197H163C156.925 197 152 201.925 152 208C152 214.075 156.925 219 163 219H193C199.075 219 204 214.075 204 208C204 201.925 199.075 197 193 197Z" stroke="white" stroke-width="1.4"/>
<path opacity="0.7" d="M192 216C196.418 216 200 212.418 200 208C200 203.582 196.418 200 192 200C187.582 200 184 203.582 184 208C184 212.418 187.582 216 192 216Z" stroke="white" stroke-width="1.2"/>
<path opacity="0.5" d="M152 243H316" stroke="white" stroke-width="1.5"/>
<path opacity="0.8" d="M244 250C247.866 250 251 246.866 251 243C251 239.134 247.866 236 244 236C240.134 236 237 239.134 237 243C237 246.866 240.134 250 244 250Z" stroke="white" stroke-width="1.6"/>
<path opacity="0.7" d="M165 267H155C153.343 267 152 268.343 152 270V280C152 281.657 153.343 283 155 283H165C166.657 283 168 281.657 168 280V270C168 268.343 166.657 267 165 267Z" stroke="white" stroke-width="1.4"/>
<path opacity="0.7" d="M155 275L159 280L167 269" stroke="white" stroke-width="1.4" stroke-linecap="round" stroke-linejoin="round"/>
<path opacity="0.7" d="M206 283C210.418 283 214 279.418 214 275C214 270.582 210.418 267 206 267C201.582 267 198 270.582 198 275C198 279.418 201.582 283 206 283Z" stroke="white" stroke-width="1.4"/>
<path opacity="0.7" d="M206 278.5C207.933 278.5 209.5 276.933 209.5 275C209.5 273.067 207.933 271.5 206 271.5C204.067 271.5 202.5 273.067 202.5 275C202.5 276.933 204.067 278.5 206 278.5Z" stroke="white" stroke-width="1.4"/>
<path opacity="0.65" d="M258 267H238C233.582 267 230 270.582 230 275C230 279.418 233.582 283 238 283H258C262.418 283 266 279.418 266 275C266 270.582 262.418 267 258 267Z" stroke="white" stroke-width="1.4"/>
<path opacity="0.2" d="M154 157V191" stroke="white" stroke-width="0.8" stroke-dasharray="3 3"/>
<path opacity="0.2" d="M265 156V164" stroke="white" stroke-width="0.8" stroke-dasharray="3 3"/>
</svg>
